solid combined.stl
facet normal 0.0 0.0 -4.0
  outer loop
    vertex 0.0 0.0 0.0
    vertex 0.0 2.0 0.0
    vertex 2.0 0.0 0.0
  endloop
endfacet
facet normal 0.0 0.0 -4.0
  outer loop
    vertex 2.0 0.0 0.0
    vertex 0.0 2.0 0.0
    vertex 2.0 2.0 0.0
  endloop
endfacet
facet normal -4.0 0.0 0.0
  outer loop
    vertex 0.0 0.0 0.0
    vertex 0.0 0.0 2.0
    vertex 0.0 2.0 2.0
  endloop
endfacet
facet normal -4.0 0.0 0.0
  outer loop
    vertex 0.0 0.0 0.0
    vertex 0.0 2.0 2.0
    vertex 0.0 2.0 0.0
  endloop
endfacet
facet normal 0.0 0.0 4.0
  outer loop
    vertex 0.0 0.0 2.0
    vertex 2.0 0.0 2.0
    vertex 2.0 2.0 2.0
  endloop
endfacet
facet normal 0.0 0.0 4.0
  outer loop
    vertex 0.0 0.0 2.0
    vertex 2.0 2.0 2.0
    vertex 0.0 2.0 2.0
  endloop
endfacet
facet normal 4.0 0.0 0.0
  outer loop
    vertex 2.0 0.0 2.0
    vertex 2.0 0.0 0.0
    vertex 2.0 2.0 0.0
  endloop
endfacet
facet normal 4.0 -0.0 0.0
  outer loop
    vertex 2.0 0.0 2.0
    vertex 2.0 2.0 0.0
    vertex 2.0 2.0 2.0
  endloop
endfacet
facet normal 0.0 4.0 -0.0
  outer loop
    vertex 2.0 2.0 0.0
    vertex 0.0 2.0 0.0
    vertex 2.0 2.0 2.0
  endloop
endfacet
facet normal 0.0 4.0 0.0
  outer loop
    vertex 0.0 2.0 0.0
    vertex 0.0 2.0 2.0
    vertex 2.0 2.0 2.0
  endloop
endfacet
facet normal 0.0 -4.0 0.0
  outer loop
    vertex 0.0 0.0 0.0
    vertex 2.0 0.0 0.0
    vertex 2.0 0.0 2.0
  endloop
endfacet
facet normal 0.0 -4.0 0.0
  outer loop
    vertex 0.0 0.0 0.0
    vertex 2.0 0.0 2.0
    vertex 0.0 0.0 2.0
  endloop
endfacet
facet normal 0.0 0.0 -4.0
  outer loop
    vertex 0.0 -2.0 0.0
    vertex 0.0 0.0 0.0
    vertex 2.0 -2.0 0.0
  endloop
endfacet
facet normal 0.0 0.0 -4.0
  outer loop
    vertex 2.0 -2.0 0.0
    vertex 0.0 0.0 0.0
    vertex 2.0 0.0 0.0
  endloop
endfacet
facet normal -4.0 0.0 0.0
  outer loop
    vertex 0.0 -2.0 0.0
    vertex 0.0 -2.0 2.0
    vertex 0.0 0.0 2.0
  endloop
endfacet
facet normal -4.0 0.0 0.0
  outer loop
    vertex 0.0 -2.0 0.0
    vertex 0.0 0.0 2.0
    vertex 0.0 0.0 0.0
  endloop
endfacet
facet normal 0.0 0.0 4.0
  outer loop
    vertex 0.0 -2.0 2.0
    vertex 2.0 -2.0 2.0
    vertex 2.0 0.0 2.0
  endloop
endfacet
facet normal 0.0 0.0 4.0
  outer loop
    vertex 0.0 -2.0 2.0
    vertex 2.0 0.0 2.0
    vertex 0.0 0.0 2.0
  endloop
endfacet
facet normal 4.0 0.0 0.0
  outer loop
    vertex 2.0 -2.0 2.0
    vertex 2.0 -2.0 0.0
    vertex 2.0 0.0 0.0
  endloop
endfacet
facet normal 4.0 -0.0 0.0
  outer loop
    vertex 2.0 -2.0 2.0
    vertex 2.0 0.0 0.0
    vertex 2.0 0.0 2.0
  endloop
endfacet
facet normal 0.0 4.0 -0.0
  outer loop
    vertex 2.0 0.0 0.0
    vertex 0.0 0.0 0.0
    vertex 2.0 0.0 2.0
  endloop
endfacet
facet normal 0.0 4.0 0.0
  outer loop
    vertex 0.0 0.0 0.0
    vertex 0.0 0.0 2.0
    vertex 2.0 0.0 2.0
  endloop
endfacet
facet normal 0.0 -4.0 0.0
  outer loop
    vertex 0.0 -2.0 0.0
    vertex 2.0 -2.0 0.0
    vertex 2.0 -2.0 2.0
  endloop
endfacet
facet normal 0.0 -4.0 0.0
  outer loop
    vertex 0.0 -2.0 0.0
    vertex 2.0 -2.0 2.0
    vertex 0.0 -2.0 2.0
  endloop
endfacet
endsolid combined.stl
